# xmcd CD database file
#
# Track frame offsets:
#	150
#	18377
#	32179
#	47331
#	62783
#	84235
#	105152
#	129229
#	144306
#	156833
#	171160
#	188862
#	213089
#	232066
#	246618
#
# Disc length: 3712 seconds
#
# Revision: 0
# Processed by: cddbd v1.4PL0 Copyright (c) Steve Scherf et al.
# Submitted via: CDex 1.50beta10
#
DISCID=c10e7e0f
DTITLE=Ernesto Cortazar - Timeless Classics
DYEAR=1900
DGENRE=New Age
TTITLE0=My Heart Will Go On
TTITLE1=The Sound Of Music
TTITLE2=Over The Rainbow
TTITLE3=Misty
TTITLE4=Moon River
TTITLE5=The Way We Were
TTITLE6=Love Story-Summer Of '42 - The Godfather
TTITLE7=Chariots Of Fire
TTITLE8=Emmanuelle'S Theme
TTITLE9=Lara'S Theme From Dr.Zhivago
TTITLE10=Time To Say Goodbye
TTITLE11=Concerto De Aranjuez
TTITLE12=Rhapsody On A Theme Of Paganini
TTITLE13=La Vie En Rose
TTITLE14=Andrew Lloyd Webber'S Medley 
EXTD=
EXTT0=
EXTT1=
EXTT2=
EXTT3=
EXTT4=
EXTT5=
EXTT6=
EXTT7=
EXTT8=
EXTT9=
EXTT10=
EXTT11=
EXTT12=
EXTT13=
EXTT14=
PLAYORDER=
